<!DOCTYPE svg PUBLIC "-//W3C//DTD SVG 20010904//EN" "http://www.w3.org/TR/2001/REC-SVG-20010904/DTD/svg10.dtd">
<svg version="1.0" xmlns="http://www.w3.org/2000/svg" width="253px" height="253px" viewBox="0 0 2530 2530" preserveAspectRatio="xMidYMid meet"><g fill="#7f7f7f" stroke="none">
 <path d="M1225 631 c-10 -17 15 -45 29 -31 7 7 5 15 -6 26 -11 11 -18 13 -23 5z"/>
 <path d="M1081 586 c-8 -10 -7 -21 5 -44 20 -42 31 -47 44 -22 9 16 6 26 -12 50 -25 35 -23 34 -37 16z"/>
 <path d="M1136 501 c-18 -20 -21 -37 -6 -46 5 -3 16 8 25 24 17 34 5 49 -19 22z"/>
 </g>

<g fill="#c3c3c3" stroke="none">
 <path d="M1048 828 c-27 -16 -48 -35 -48 -42 0 -24 32 -114 69 -195 4 -7 11 -13 16 -12 14 2 6 77 -11 109 -8 15 -14 37 -14 49 0 12 -4 25 -10 28 -19 12 -9 23 46 49 54 26 64 47 21 45 -12 0 -43 -14 -69 -31z"/>
 <path d="M1147 561 c-34 -36 -44 -54 -40 -70 9 -34 21 -34 38 -1 27 51 105 77 105 34 0 -14 15 -48 41 -94 5 -8 14 -26 20 -40 6 -14 17 -37 25 -52 8 -14 14 -32 14 -40 1 -20 36 -62 43 -51 7 10 -105 300 -131 341 -24 38 -63 29 -115 -27z"/>
 </g>

<g fill="#71cbe1" stroke="none">
 <path d="M816 1671 c-3 -5 10 -22 30 -38 100 -79 111 -94 144 -202 26 -85 30 -108 21 -128 -6 -13 -11 -34 -11 -47 0 -13 -18 -51 -41 -85 -26 -39 -39 -67 -35 -78 6 -15 11 -13 31 12 14 17 40 59 57 95 30 59 33 73 33 155 0 76 -4 98 -26 146 -32 69 -90 134 -140 160 -42 21 -55 23 -63 10z"/>
 <path d="M1513 1647 c-67 -29 -70 -32 -39 -52 24 -16 52 -13 41 5 -15 24 104 26 175 3 42 -14 59 -26 94 -72 49 -65 66 -107 66 -167 0 -53 16 -98 31 -88 8 4 10 31 7 78 -8 128 -82 245 -183 292 -63 30 -124 30 -192 1z"/>
 </g>

<g fill="#770012" stroke="none">
 <path d="M962 2275 c-290 -112 -399 -269 -502 -725 -48 -212 -64 -310 -52 -322 8 -8 13 -7 16 3 2 8 11 35 19 61 9 25 13 48 11 51 -10 9 64 280 110 402 8 22 15 48 16 58 0 9 4 25 9 35 6 9 12 29 15 43 3 14 17 42 31 63 14 20 25 41 25 46 0 18 60 97 102 136 39 35 109 75 193 109 88 37 106 46 100 55 -9 14 -22 12 -93 -15z"/>
 <path d="M1160 2281 c-35 -10 -32 -35 5 -39 36 -4 82 -45 101 -89 23 -53 18 -104 -16 -156 -33 -48 -66 -64 -113 -52 -42 11 -40 -13 3 -35 47 -24 82 -23 86 2 1 10 17 30 34 45 35 29 70 99 70 139 0 33 -44 119 -71 137 l-21 15 21 12 c12 6 19 15 16 21 -7 10 -77 11 -115 0z"/>
 <path d="M1305 2271 c-6 -11 25 -31 47 -31 7 0 59 -14 115 -31 93 -29 107 -37 159 -88 68 -67 109 -146 174 -333 l48 -138 -44 32 c-46 33 -135 51 -148 29 -4 -6 1 -14 11 -17 129 -41 208 -126 238 -259 14 -60 31 -61 27 -2 -5 75 -53 290 -88 396 -42 127 -81 201 -140 269 -76 86 -160 131 -314 167 -77 18 -77 18 -85 6z"/>
 <path d="M1363 1613 c-14 -16 -41 -59 -59 -97 -36 -75 -51 -90 -104 -101 -47 -10 -53 -14 -39 -31 16 -20 36 -17 96 10 40 19 54 31 59 53 10 40 49 115 78 150 24 28 25 43 4 43 -5 0 -21 -12 -35 -27z"/>
 <path d="M1064 1242 c-14 -45 -56 -123 -84 -155 -20 -23 -27 -38 -19 -42 15 -10 75 50 110 111 16 29 39 54 50 57 27 7 18 22 -21 36 -26 9 -32 8 -36 -7z"/>
 <path d="M1146 862 c-3 -5 49 -144 115 -308 66 -164 121 -303 122 -308 1 -6 -7 -12 -18 -14 -63 -13 -120 -61 -97 -84 6 -6 15 0 25 16 12 17 32 28 72 37 59 13 76 25 51 35 -9 3 -14 9 -11 14 5 8 -230 599 -244 613 -5 5 -11 5 -15 -1z"/>
 </g>

<g fill="#99d9ea" stroke="none">
 <path d="M662 1660 c-35 -16 -61 -33 -58 -38 3 -4 43 -31 89 -60 47 -28 96 -65 110 -82 35 -41 65 -125 92 -255 12 -60 27 -111 32 -112 15 -5 93 115 93 143 0 13 5 34 11 47 9 20 5 43 -21 128 -30 96 -36 108 -84 152 -28 26 -65 61 -83 77 -42 40 -96 40 -181 0z"/>
 <path d="M1530 1633 c-52 -19 -45 -45 21 -78 101 -52 165 -137 209 -280 41 -131 45 -141 55 -146 13 -5 65 98 65 131 1 44 -17 174 -28 200 -6 14 -32 52 -59 84 -37 47 -59 64 -98 77 -48 18 -134 23 -165 12z"/>
 </g>

<g fill="#232323" stroke="none">
 <path d="M1111 2173 c-39 -48 -47 -83 -25 -125 39 -79 82 -97 123 -54 27 29 20 46 -18 46 -19 0 -34 8 -45 25 -21 32 -20 48 4 94 18 36 18 51 -1 51 -4 0 -21 -17 -38 -37z"/>
 <path d="M1095 834 c-49 -24 -98 -71 -89 -85 3 -5 11 -6 19 -2 10 3 15 -1 15 -13 0 -11 7 -32 15 -48 8 -15 15 -38 15 -50 0 -29 37 -101 53 -102 6 0 26 12 42 27 17 15 41 29 55 31 20 2 25 8 24 29 -1 31 -73 216 -88 228 -7 5 -31 -1 -61 -15z"/>
 <path d="M1927 843 c-4 -3 -7 -16 -7 -28 0 -12 -16 -40 -36 -63 -61 -72 -127 -102 -362 -167 -67 -19 -127 -37 -132 -40 -6 -3 -5 -16 1 -33 6 -17 7 -23 0 -17 -11 11 -85 196 -95 237 -8 36 -82 116 -95 103 -8 -9 21 -90 175 -480 40 -101 46 -110 75 -118 40 -10 63 7 37 27 -15 11 -88 180 -88 203 0 4 13 8 30 7 25 -1 63 6 180 30 109 23 141 34 249 85 87 40 141 101 141 156 -1 31 -61 111 -73 98z"/>
 <path d="M363 798 c-11 -13 -23 -31 -26 -40 -7 -20 19 -88 33 -88 6 0 10 -7 10 -15 0 -10 38 -34 103 -64 107 -51 198 -81 307 -100 100 -17 293 -32 303 -22 5 5 2 24 -6 44 l-15 35 -139 32 c-183 42 -336 86 -386 112 -23 11 -66 45 -97 74 -31 30 -59 54 -62 54 -2 0 -14 -10 -25 -22z"/>
 <path d="M1205 561 c-88 -40 -92 -83 -25 -251 23 -58 46 -115 51 -128 l9 -23 33 34 c21 23 46 38 70 42 43 8 51 17 39 42 -5 10 -16 34 -24 53 -26 60 -38 84 -47 100 -24 43 -39 78 -46 107 -3 18 -10 35 -14 37 -4 3 -25 -3 -46 -13z"/>
 <path d="M1349 219 c-21 -6 -47 -22 -60 -35 -21 -23 -22 -26 -6 -41 22 -22 111 -22 136 1 10 9 25 16 33 16 19 0 52 47 38 55 -19 12 -106 14 -141 4z m56 -38 c-15 -14 -75 -24 -75 -13 0 13 18 20 55 21 17 1 25 -3 20 -8z"/>
 </g>

<g fill="#00a1e7" stroke="none">
 <path d="M580 1593 c-18 -20 -45 -62 -59 -93 -22 -46 -26 -69 -26 -145 0 -76 4 -99 26 -145 33 -71 79 -123 138 -158 66 -39 157 -38 224 1 27 16 50 34 53 40 6 18 -41 235 -66 300 -33 88 -80 134 -211 211 l-47 26 -32 -37z"/>
 <path d="M1425 1578 c-21 -22 -49 -66 -63 -97 -36 -77 -38 -211 -4 -285 50 -111 110 -162 212 -182 95 -18 154 2 224 75 32 33 32 40 -3 156 -51 173 -128 273 -259 339 l-70 35 -37 -41z"/>
 </g>

<g fill="#880015" stroke="none">
 <path d="M1020 2283 c-19 -8 -48 -21 -65 -27 -84 -35 -171 -85 -209 -121 -63 -60 -87 -100 -178 -287 -4 -10 -8 -28 -8 -40 -1 -13 -8 -41 -16 -63 -35 -93 -71 -225 -63 -230 4 -3 17 12 29 34 31 61 78 109 134 139 73 38 179 38 252 0 82 -43 152 -138 169 -232 6 -29 15 -41 45 -56 31 -16 43 -17 81 -8 67 17 94 42 130 118 31 67 49 92 88 114 108 64 126 70 217 74 96 5 158 -8 168 -33 3 -8 10 -15 17 -15 6 0 19 -10 29 -22 38 -47 32 9 -15 147 -68 199 -114 286 -189 359 -59 59 -68 63 -172 94 -60 18 -123 37 -140 42 -37 12 -68 13 -78 3 -4 -5 -13 -8 -19 -8 -22 0 -17 -25 8 -37 30 -13 75 -93 75 -131 0 -43 -31 -101 -77 -145 -42 -41 -47 -43 -73 -32 -59 24 -110 105 -110 172 1 68 58 147 125 172 20 7 20 8 1 22 -26 18 -111 17 -156 -3z"/>
 <path d="M434 1365 c-4 -9 -4 -18 -1 -21 5 -6 -14 -70 -33 -109 -11 -24 -69 -387 -63 -398 3 -4 22 7 42 26 43 39 141 88 224 112 31 9 59 20 62 25 3 4 -15 20 -39 34 -52 30 -88 71 -120 135 -24 47 -51 153 -47 183 3 22 -18 33 -25 13z"/>
 <path d="M1926 1369 c-2 -8 -7 -39 -10 -69 -3 -30 -10 -71 -16 -90 -16 -59 -72 -142 -120 -178 -25 -19 -45 -39 -45 -44 0 -5 33 -22 72 -38 85 -34 116 -52 160 -93 45 -42 48 -27 28 135 -40 340 -55 420 -69 377z"/>
 <path d="M1255 1245 c-16 -8 -56 -14 -87 -13 -66 1 -77 -6 -114 -70 -15 -26 -40 -62 -57 -79 -17 -18 -29 -33 -26 -33 29 -3 431 -4 434 -2 2 2 -9 21 -23 41 -24 34 -44 73 -73 149 -10 25 -13 26 -54 7z"/>
 </g>

<g fill="#090909" stroke="none">
 <path d="M919 2311 c-111 -45 -166 -77 -229 -134 -174 -158 -266 -442 -385 -1190 l-36 -228 25 -53 c77 -162 322 -259 738 -292 l76 -6 52 -128 c28 -70 59 -135 68 -143 46 -39 142 -48 201 -17 47 23 101 68 101 83 0 6 -18 55 -40 108 -22 54 -40 103 -40 108 0 6 9 11 21 11 35 0 210 38 279 61 111 35 186 78 239 134 28 29 53 66 56 81 4 16 11 38 16 49 7 14 3 76 -11 195 -70 593 -131 880 -228 1064 -42 81 -134 179 -205 220 -107 63 -272 100 -487 111 l-115 6 -96 -40z m420 -57 c273 -48 384 -139 476 -394 27 -76 87 -321 80 -328 -2 -2 -9 6 -15 19 -24 43 -95 111 -145 137 -72 38 -178 38 -250 0 -65 -34 -128 -102 -161 -175 -15 -32 -30 -65 -34 -73 -4 -8 -28 -24 -54 -34 -45 -19 -47 -19 -93 0 -43 18 -47 23 -65 79 -32 97 -99 179 -183 223 -72 38 -178 38 -250 0 -54 -28 -110 -82 -145 -138 l-21 -35 7 40 c4 22 20 85 36 140 100 338 181 438 443 542 55 21 70 23 174 18 63 -3 153 -13 200 -21z m-474 -608 c206 -96 219 -449 21 -571 -42 -25 -59 -30 -115 -30 -107 0 -180 53 -233 171 -34 74 -32 208 3 284 14 30 39 70 54 89 38 44 117 81 175 81 26 0 66 -10 95 -24z m840 -20 c59 -27 98 -70 134 -146 22 -47 26 -69 26 -146 0 -84 -3 -96 -35 -160 -62 -120 -140 -162 -262 -139 -90 17 -132 50 -178 140 -33 63 -35 74 -35 159 0 77 4 100 26 146 14 30 39 70 54 89 38 44 117 81 175 81 26 0 66 -10 95 -24z m-1255 -353 c17 -81 65 -166 123 -219 27 -24 54 -44 61 -45 6 0 -14 -8 -44 -18 -76 -24 -165 -68 -200 -98 -19 -16 -30 -20 -30 -11 0 7 16 108 35 223 19 116 35 213 35 218 0 24 10 -1 20 -50z m1515 -199 c14 -109 25 -203 25 -208 0 -4 -15 5 -34 22 -31 27 -105 67 -171 92 l-27 10 49 44 c56 50 109 142 119 204 4 24 8 41 10 39 2 -2 15 -93 29 -203z m-662 129 c3 -16 21 -53 39 -83 l34 -55 -196 0 -196 0 30 40 c17 22 40 60 50 83 16 36 23 42 40 37 50 -15 112 -16 146 -2 42 17 46 16 53 -20z m-31 -652 l115 -289 -38 -6 c-20 -3 -51 -17 -67 -31 -17 -14 -32 -25 -34 -25 -3 0 -24 51 -48 113 -23 61 -50 130 -60 152 -10 22 -27 61 -39 87 -12 26 -21 52 -21 58 0 6 -5 21 -12 33 -15 28 -47 118 -48 134 0 20 71 62 106 62 l30 1 116 -289z m8 173 c0 -13 70 -194 89 -232 5 -9 23 -57 41 -107 18 -49 38 -100 46 -111 12 -20 11 -21 -5 -17 -11 3 -31 39 -58 106 -35 88 -154 394 -171 437 -3 8 9 -2 26 -24 18 -21 32 -45 32 -52z m700 19 c0 -72 -137 -165 -300 -203 -25 -6 -54 -13 -65 -15 -49 -12 -152 -29 -175 -30 -18 0 -26 6 -28 21 -3 18 5 22 55 34 108 24 298 89 343 118 46 29 130 116 130 135 0 6 9 2 20 -8 12 -11 20 -31 20 -52z m-1530 3 c31 -29 74 -63 95 -74 54 -27 182 -65 350 -103 159 -36 170 -40 178 -69 5 -19 2 -21 -36 -16 -23 3 -76 8 -117 11 -157 12 -290 46 -423 108 -73 34 -93 48 -117 86 -20 30 -28 51 -24 65 7 23 23 46 32 46 3 0 31 -24 62 -54z m988 -537 c34 -12 35 -23 3 -32 -12 -3 -18 1 -17 11 0 9 -10 19 -24 23 -14 4 -18 7 -9 8 9 1 30 -4 47 -10z m-123 -22 c-10 -8 -15 -19 -11 -25 8 -13 -6 -17 -17 -5 -8 8 22 43 36 43 6 0 3 -6 -8 -13z"/>
 <path d="M1099 2233 c-38 -32 -68 -95 -69 -141 0 -73 58 -157 116 -168 45 -8 81 12 121 70 53 78 44 148 -30 224 -51 52 -89 56 -138 15z m26 -83 c-21 -40 -19 -58 11 -97 17 -22 33 -33 51 -33 22 0 24 -2 13 -16 -23 -27 -62 -13 -87 31 -26 44 -25 78 3 120 22 34 28 32 9 -5z"/>
 </g>

</svg>