<?xml version="1.0" encoding="UTF-8" standalone="no"?>
<!-- Created with Inkscape (http://www.inkscape.org/) -->

<svg
   xmlns:dc="http://purl.org/dc/elements/1.1/"
   xmlns:cc="http://creativecommons.org/ns#"
   xmlns:rdf="http://www.w3.org/1999/02/22-rdf-syntax-ns#"
   xmlns:svg="http://www.w3.org/2000/svg"
   xmlns="http://www.w3.org/2000/svg"
   xmlns:sodipodi="http://sodipodi.sourceforge.net/DTD/sodipodi-0.dtd"
   xmlns:inkscape="http://www.inkscape.org/namespaces/inkscape"
   width="100"
   height="100"
   id="svg2"
   version="1.1"
   inkscape:version="0.48.4 r9939"
   sodipodi:docname="person_round.svg"
   inkscape:export-filename="W:\public\2013\img\icons\person_round.png"
   inkscape:export-xdpi="90"
   inkscape:export-ydpi="90">
  <defs
     id="defs4" />
  <sodipodi:namedview
     id="base"
     pagecolor="#ffffff"
     bordercolor="#666666"
     borderopacity="1.0"
     inkscape:pageopacity="0.0"
     inkscape:pageshadow="2"
     inkscape:zoom="3.959798"
     inkscape:cx="-27.006688"
     inkscape:cy="59.600104"
     inkscape:document-units="px"
     inkscape:current-layer="layer2"
     showgrid="false"
     inkscape:window-width="1920"
     inkscape:window-height="1137"
     inkscape:window-x="1911"
     inkscape:window-y="-9"
     inkscape:window-maximized="1" />
  <metadata
     id="metadata7">
    <rdf:RDF>
      <cc:Work
         rdf:about="">
        <dc:format>image/svg+xml</dc:format>
        <dc:type
           rdf:resource="http://purl.org/dc/dcmitype/StillImage" />
        <dc:title></dc:title>
      </cc:Work>
    </rdf:RDF>
  </metadata>
  <g
     inkscape:label="Ebene 1"
     inkscape:groupmode="layer"
     id="layer1"
     transform="translate(0,-952.36218)"
     style="display:inline" />
  <g
     inkscape:groupmode="layer"
     id="layer2"
     inkscape:label="Ebene"
     style="display:inline">
    <g
       id="g3792"
       transform="matrix(1.8553551,0,0,1.8553551,-46.823339,-41.561097)">
      <path
         transform="matrix(1.1105263,0,0,1.1105263,-1.9777725,-6.13709)"
         d="m 72.730984,49.997448 c 0,13.249931 -10.741192,23.991123 -23.991123,23.991123 -13.249932,0 -23.991124,-10.741192 -23.991124,-23.991123 0,-13.249932 10.741192,-23.991123 23.991124,-23.991123 13.249931,0 23.991123,10.741191 23.991123,23.991123 z"
         sodipodi:ry="23.991123"
         sodipodi:rx="23.991123"
         sodipodi:cy="49.997448"
         sodipodi:cx="48.739861"
         id="path2996"
         style="color:#000000;fill:#00638e;fill-opacity:1;stroke:#00638e;stroke-width:0.48533773;stroke-linecap:round;stroke-linejoin:round;stroke-miterlimit:2.61310005;stroke-opacity:1;stroke-dasharray:none;stroke-dashoffset:1.2;marker:none;visibility:visible;display:inline;overflow:visible;enable-background:accumulate"
         sodipodi:type="arc" />
      <path
         sodipodi:nodetypes="ccczzzzzzzzzcc"
         inkscape:connector-curvature="0"
         id="path3766"
         d="m 36.25,62.232143 22.946429,-0.08929 0,-5 c 0,0 -5.415467,-2.249997 -7.232143,-3.660714 -1.816676,-1.410717 -3.743193,-2.654692 -3.75,-4.285715 -0.0068,-1.631023 0.581662,-2.349555 1.071429,-3.035714 0.489767,-0.686159 1.636342,-1.293179 1.607142,-5.982143 -0.0292,-4.688964 -1.794114,-7.20518 -4.821428,-7.142857 -3.027314,0.06232 -4.935994,2.626559 -4.910715,7.321429 0.02528,4.69487 0.986176,4.807828 1.607143,5.803572 0.620968,0.995743 1.179297,1.399956 1.160715,3.035713 -0.01858,1.635757 -1.568082,2.416619 -2.857143,3.482143 C 39.782368,53.744091 36.25,55.089286 36.25,55.089286 z"
         style="fill:#ffffff;fill-opacity:1;stroke:#ffffff;stroke-width:0.53898036px;stroke-linecap:butt;stroke-linejoin:miter;stroke-opacity:1" />
      <path
         sodipodi:nodetypes="ccczzzzzzzcsccc"
         inkscape:connector-curvature="0"
         id="path3766-1"
         d="m 62.366072,62.277353 7.053572,-0.0738 -0.08929,-5.82877 c 0,0 -3.30652,-1.602527 -4.805101,-2.579036 -1.498581,-0.976509 -3.534198,-2.015446 -3.539813,-3.363435 -0.0056,-1.347988 0.479814,-1.941832 0.883824,-2.508921 0.404011,-0.567089 1.349823,-1.068771 1.325736,-4.944051 -0.02409,-3.87528 -1.479969,-5.954852 -3.977209,-5.903344 -2.497239,0.0515 -4.071715,2.170767 -4.050862,6.050928 0.02085,3.880161 0.813499,3.973517 1.325737,4.796468 0.512238,0.82295 0.972805,1.157019 0.957477,2.50892 0.0093,0.4587 -0.01828,0.707875 -0.07839,0.919203 -0.06011,0.211329 -0.230863,0.496802 -0.968022,1.260342 1.139679,0.855944 5.962337,2.78525 5.962337,2.78525 z"
         style="fill:#ffffff;fill-opacity:1;stroke:#ffffff;stroke-width:0.53898036px;stroke-linecap:butt;stroke-linejoin:miter;stroke-opacity:1;display:inline" />
    </g>
  </g>
</svg>
